<svg width="152" height="48" viewBox="0 0 152 48" fill="none" xmlns="http://www.w3.org/2000/svg">
<path d="M3.85194 18.2589C1.81784 22.3494 0.535967 26.6332 0.135157 30.6796C-0.265654 34.7261 0.228723 38.3926 1.5686 41.3106L19.3561 24L3.85194 18.2589Z" fill="#319683" fill-opacity="0.5"/>
<path d="M1.5686 41.3106C2.90847 44.2286 5.04664 46.2954 7.76818 47.3032C10.4897 48.311 13.6988 48.2243 17.0727 47.0517L19.3561 24L1.5686 41.3106Z" fill="#319683"/>
<path d="M17.0727 47.0517C20.4467 45.8792 23.8668 43.6622 26.9891 40.6236C30.1115 37.5849 32.8261 33.8317 34.8602 29.7411L19.3561 24L17.0727 47.0517Z" fill="#319683" fill-opacity="0.5"/>
<path d="M34.8602 29.7411C36.8943 25.6506 38.1762 21.3668 38.577 17.3204C38.9778 13.2739 38.4834 9.60744 37.1436 6.6894L19.3561 24L34.8602 29.7411Z" fill="#319683"/>
<path d="M37.1436 6.6894C35.8037 3.77136 33.6655 1.70457 30.944 0.696792C28.2224 -0.310985 25.0134 -0.224254 21.6394 0.948266L19.3561 24L37.1436 6.6894Z" fill="#319683" fill-opacity="0.5"/>
<path d="M21.6394 0.948266C18.2655 2.12079 14.8454 4.33779 11.723 7.37644C8.6007 10.4151 5.88604 14.1683 3.85194 18.2589L19.3561 24L21.6394 0.948266Z" fill="#319683"/>
<path d="M57.8672 12.579V9.35889H44.5273V12.579H49.368V24.3415H53.0264V12.579H57.8672Z" fill="#319683"/>
<path d="M67.6739 18.7286C67.607 15.0612 65.0639 12.7803 61.8963 12.7803C58.6394 12.7803 55.9625 15.1954 55.9625 18.7286C55.9625 22.2842 58.6394 24.6769 61.874 24.6769C64.4393 24.6769 66.4693 23.5365 67.4285 21.1661L64.2609 20.5176C63.6586 21.6133 62.6993 21.8146 61.874 21.8146C60.6694 21.8146 59.7548 20.9872 59.4648 19.6455H67.6739V18.7286ZM61.8963 15.6874C62.9224 15.6874 63.8147 16.2464 64.1493 17.454H59.5317C59.8663 16.3135 60.8924 15.6874 61.8963 15.6874Z" fill="#319683"/>
<path d="M80.1927 13.1157H76.6236V14.0102C75.7536 13.2275 74.5936 12.7803 73.1436 12.7803C70.1767 12.7803 67.6783 15.1954 67.6783 18.7286C67.6783 22.2842 70.1767 24.6769 73.1436 24.6769C74.5936 24.6769 75.7536 24.2297 76.6236 23.447V24.3415H80.1927V13.1157ZM73.8797 21.6357C72.3182 21.6357 71.1805 20.4729 71.1805 18.7286C71.1805 17.0067 72.3182 15.8215 73.8797 15.8215C75.3297 15.8215 76.6236 17.0067 76.6236 18.7286C76.6236 20.4729 75.3297 21.6357 73.8797 21.6357Z" fill="#319683"/>
<path d="M96.155 12.7803C94.415 12.7803 93.0765 13.5182 92.1842 14.6811C91.4258 13.4512 90.0873 12.7803 88.5258 12.7803C87.0758 12.7803 85.9828 13.2946 85.2243 14.1444V13.1157H81.6551V24.3415H85.2243V18.8404C85.2243 16.962 86.072 16.0004 87.3658 16.0004C88.4366 16.0004 89.262 16.8055 89.262 18.0801V24.3415H92.8312V18.8404C92.8312 16.962 93.7011 16.0004 95.0173 16.0004C96.0657 16.0004 96.8911 16.8055 96.8911 18.0801V24.3415H100.438V17.3198C100.438 14.5916 98.5419 12.7803 96.155 12.7803Z" fill="#319683"/>
<path d="M56.7295 32.5484C56.2164 34.7846 54.6995 35.858 52.8034 35.858C50.4388 35.858 48.5426 33.9348 48.5426 31.3856C48.5426 28.8363 50.4388 26.9355 52.8034 26.9355C54.7218 26.9355 56.2387 27.9865 56.7072 30.1556L60.321 29.3059C59.6071 25.7503 56.4841 23.5588 52.8034 23.5588C48.3642 23.5588 44.8619 27.0026 44.8619 31.3856C44.8619 35.7909 48.3642 39.2123 52.8034 39.2123C56.6402 39.2123 59.6518 37.0208 60.3433 33.264L56.7295 32.5484Z" fill="#319683"/>
<path d="M66.7605 27.3604C63.3698 27.3604 60.559 29.7308 60.559 33.264C60.559 36.8195 63.3698 39.1899 66.7605 39.1899C70.0843 39.1899 72.8951 36.8195 72.8951 33.264C72.8951 29.7308 70.0843 27.3604 66.7605 27.3604ZM66.7605 36.171C65.3105 36.171 63.9944 35.0306 63.9944 33.264C63.9944 31.5197 65.3105 30.3569 66.7605 30.3569C68.1436 30.3569 69.4597 31.5197 69.4597 33.264C69.4597 35.0306 68.1436 36.171 66.7605 36.171Z" fill="#319683"/>
<path d="M80.6255 27.3157C79.2201 27.3157 78.0378 27.83 77.1901 28.7245V27.6511H73.6209V38.8769H77.1901V33.6665C77.1901 31.4974 78.1047 30.5358 79.5101 30.5358C80.6478 30.5358 81.4286 31.4303 81.4286 32.7496V38.8769H84.9754V31.9893C84.9754 29.1717 83.2355 27.3157 80.6255 27.3157Z" fill="#319683"/>
<path d="M93.2998 27.3157C91.8944 27.3157 90.7121 27.83 89.8644 28.7245V27.6511H86.2952V38.8769H89.8644V33.6665C89.8644 31.4974 90.779 30.5358 92.1844 30.5358C93.3221 30.5358 94.1029 31.4303 94.1029 32.7496V38.8769H97.6497V31.9893C97.6497 29.1717 95.9098 27.3157 93.2998 27.3157Z" fill="#319683"/>
<path d="M109.945 33.264C109.878 29.5966 107.335 27.3157 104.167 27.3157C100.91 27.3157 98.2334 29.7308 98.2334 33.264C98.2334 36.8195 100.91 39.2123 104.145 39.2123C106.71 39.2123 108.74 38.0718 109.699 35.7014L106.532 35.0529C105.929 36.1487 104.97 36.3499 104.145 36.3499C102.94 36.3499 102.026 35.5225 101.736 34.1808H109.945V33.264ZM104.167 30.2227C105.193 30.2227 106.086 30.7818 106.42 31.9893H101.803C102.137 30.8489 103.163 30.2227 104.167 30.2227Z" fill="#319683"/>
<path d="M116.061 36.0816C114.455 36.0816 113.385 34.9188 113.385 33.264C113.385 31.6315 114.455 30.4464 116.061 30.4464C117.199 30.4464 118.114 31.0725 118.426 32.4366L121.772 31.6315C121.148 28.9928 118.783 27.3157 116.061 27.3157C112.715 27.3157 109.949 29.7308 109.949 33.264C109.949 36.8195 112.715 39.2123 116.061 39.2123C118.85 39.2123 121.214 37.4904 121.772 34.8293L118.493 34.1137C118.114 35.4778 117.199 36.0816 116.061 36.0816Z" fill="#319683"/>
<path d="M129.983 35.5673C129.515 35.8356 128.845 36.0145 128.355 36.0145C127.418 36.0145 126.86 35.5449 126.86 34.3821V30.4911H130.161V27.6511H126.86V24.3415H123.291V27.6511H121.261V30.4911H123.291V34.7399C123.291 37.6917 124.964 39.2123 127.752 39.2123C129.024 39.2123 129.938 38.8545 130.808 38.3849L129.983 35.5673Z" fill="#319683"/>
<path d="M136.293 27.3604C132.902 27.3604 130.091 29.7308 130.091 33.264C130.091 36.8195 132.902 39.1899 136.293 39.1899C139.617 39.1899 142.427 36.8195 142.427 33.264C142.427 29.7308 139.617 27.3604 136.293 27.3604ZM136.293 36.171C134.843 36.171 133.527 35.0306 133.527 33.264C133.527 31.5197 134.843 30.3569 136.293 30.3569C137.676 30.3569 138.992 31.5197 138.992 33.264C138.992 35.0306 137.676 36.171 136.293 36.171Z" fill="#319683"/>
<path d="M150.582 27.4946C148.752 27.4946 147.525 28.4561 146.722 29.7978V27.6511H143.153V38.8769H146.722V35.366C146.722 32.4589 148.083 31.1619 150.582 31.1619H151.228L151.385 27.584C151.117 27.5169 150.894 27.4946 150.582 27.4946Z" fill="#319683"/>
</svg>
