<svg width="608" height="147" viewBox="0 0 608 147" fill="none" xmlns="http://www.w3.org/2000/svg">
<path d="M207 2H400L425 126H182L207 2Z" fill="url(#paint0_linear_707_3393)"/>
<path d="M207 2H400L425 126H182L207 2Z" fill="#050623" fill-opacity="0.2"/>
<g filter="url(#filter0_f_707_3393)">
<path d="M221.296 2H385.704L407 126H200L221.296 2Z" fill="url(#paint1_linear_707_3393)"/>
</g>
<g style="mix-blend-mode:overlay">
<path d="M201.186 125L222.139 3H384.861L405.814 125H201.186Z" stroke="white" stroke-opacity="0.06" stroke-width="2"/>
</g>
<g filter="url(#filter1_di_707_3393)">
<path fill-rule="evenodd" clip-rule="evenodd" d="M34 147H304H574C546.629 147 532.075 125.851 519.57 107.68C510.153 93.9952 501.898 82 490.207 82H304H117.793C106.102 82 97.8473 93.9952 88.43 107.68C75.9254 125.851 61.3709 147 34 147Z" fill="url(#paint2_linear_707_3393)"/>
</g>
<g filter="url(#filter2_f_707_3393)">
<path fill-rule="evenodd" clip-rule="evenodd" d="M73 147H34C61.3709 147 75.9254 125.851 88.43 107.68C97.8473 93.9952 106.102 82 117.793 82H128.138C117.096 82 109.3 93.9952 100.406 107.68C96.1595 114.214 94.7657 121.133 93.5203 127.315C91.3023 138.326 89.555 147 73 147ZM533 147H574C546.629 147 532.075 125.851 519.57 107.68C510.153 93.9952 501.898 82 490.207 82H479.862C490.904 82 498.7 93.9952 507.594 107.68C511.997 114.454 513.055 121.643 513.99 127.995C515.563 138.681 516.787 147 533 147Z" fill="url(#paint3_linear_707_3393)" fill-opacity="0.75"/>
</g>
<g style="mix-blend-mode:overlay">
<g opacity="0.35" filter="url(#filter3_f_707_3393)">
<rect x="128" y="97" width="302" height="18" rx="9" fill="url(#paint4_linear_707_3393)" fill-opacity="0.96"/>
</g>
<g opacity="0.35" filter="url(#filter4_f_707_3393)">
<rect x="400" y="97" width="80" height="18" rx="9" fill="url(#paint5_linear_707_3393)" fill-opacity="0.96"/>
</g>
</g>
<g style="mix-blend-mode:overlay" opacity="0.5" filter="url(#filter5_f_707_3393)">
<path d="M88.5 140.5C93.5 132.5 98.5 117 100 109C101.5 101 106.5 95.5 110.5 94" stroke="white" stroke-width="3"/>
</g>
<g style="mix-blend-mode:overlay" opacity="0.5" filter="url(#filter6_f_707_3393)">
<path d="M517 140.5C512 132.5 507 117 505.5 109C504 101 499 95.5 495 94" stroke="white" stroke-width="3"/>
</g>
<g filter="url(#filter7_dddd_707_3393)">
<rect x="124" y="95" width="68" height="46" rx="7" fill="url(#paint6_linear_707_3393)"/>
<path d="M146.922 117.152C148.394 116.288 149.226 114.784 149.226 112.832C149.226 108.896 146.122 106.08 141.546 106.08C137.194 106.08 134.026 108.704 133.546 112.96L138.378 113.888C138.57 111.488 139.85 110.432 141.578 110.432C143.306 110.432 144.426 111.424 144.426 112.896C144.426 114.272 143.37 115.072 141.546 115.072H138.89V119.264H141.77C143.626 119.264 144.682 120.096 144.682 121.504C144.682 123.072 143.402 124.096 141.61 124.096C139.722 124.096 138.57 122.88 138.282 120.768L133.29 121.696C133.77 125.856 137.066 128.48 141.578 128.48C146.282 128.48 149.578 125.632 149.578 121.568C149.578 119.552 148.618 118.016 146.922 117.152Z" fill="#F1CD71"/>
<path d="M159.474 113.18H157.134L151.374 129.44H153.714L159.474 113.18ZM170.066 125.12H165.186L167.106 123.36C168.906 121.66 169.926 120.5 169.926 118.64C169.926 115.98 167.926 114.3 165.086 114.3C162.246 114.3 160.266 115.94 160.126 118.64L163.186 119.22C163.306 117.72 164.006 117.06 165.106 117.06C166.086 117.06 166.766 117.7 166.766 118.66C166.766 119.88 165.846 120.68 164.966 121.5L160.346 125.84V128H170.066V125.12ZM177.285 114.3C173.745 114.3 171.385 117.12 171.385 121.3C171.385 125.48 173.745 128.3 177.285 128.3C180.825 128.3 183.205 125.48 183.205 121.3C183.205 117.12 180.825 114.3 177.285 114.3ZM177.285 125.4C175.705 125.4 174.705 123.82 174.705 121.3C174.705 118.8 175.705 117.2 177.285 117.2C178.865 117.2 179.885 118.8 179.885 121.3C179.885 123.82 178.865 125.4 177.285 125.4Z" fill="#F1CD71"/>
</g>
<g filter="url(#filter8_dd_707_3393)">
<path d="M209.287 115.5L205.367 106.12H203.001L199.081 115.5H201.559L202.217 113.792H206.165L206.823 115.5H209.287ZM205.395 111.804H203.001L204.191 108.724L205.395 111.804ZM213.256 108.262C211.576 108.262 210.344 109.116 210.036 110.474L212.15 110.908C212.262 110.292 212.654 110.026 213.326 110.026C213.914 110.026 214.32 110.418 214.32 111.006V111.146H212.528C210.652 111.146 209.602 112.042 209.602 113.414C209.602 114.8 210.652 115.71 212.22 115.71C213.158 115.71 213.83 115.402 214.32 114.982V115.5H216.476V111.048C216.476 109.256 215.23 108.262 213.256 108.262ZM212.85 114.03C212.262 114.03 211.87 113.75 211.87 113.302C211.87 112.868 212.22 112.574 212.78 112.574H214.32V112.728C214.32 113.512 213.62 114.03 212.85 114.03ZM222.268 108.262C221.386 108.262 220.644 108.584 220.112 109.144V108.472H217.872V115.5H220.112V112.238C220.112 110.88 220.686 110.278 221.568 110.278C222.282 110.278 222.772 110.838 222.772 111.664V115.5H224.998V111.188C224.998 109.424 223.906 108.262 222.268 108.262ZM231.216 113.428C230.922 113.596 230.502 113.708 230.194 113.708C229.606 113.708 229.256 113.414 229.256 112.686V110.25H231.328V108.472H229.256V106.12H227.016V108.472H225.742V110.25H227.016V112.91C227.016 114.758 228.066 115.71 229.816 115.71C230.614 115.71 231.188 115.486 231.734 115.192L231.216 113.428ZM235.883 108.262C234.203 108.262 232.971 109.116 232.663 110.474L234.777 110.908C234.889 110.292 235.281 110.026 235.953 110.026C236.541 110.026 236.947 110.418 236.947 111.006V111.146H235.155C233.279 111.146 232.229 112.042 232.229 113.414C232.229 114.8 233.279 115.71 234.847 115.71C235.785 115.71 236.457 115.402 236.947 114.982V115.5H239.103V111.048C239.103 109.256 237.857 108.262 235.883 108.262ZM235.477 114.03C234.889 114.03 234.497 113.75 234.497 113.302C234.497 112.868 234.847 112.574 235.407 112.574H236.947V112.728C236.947 113.512 236.247 114.03 235.477 114.03ZM242.613 104.72H240.373V113.274C240.373 114.73 241.339 115.71 242.795 115.71C243.607 115.71 244.041 115.472 244.447 115.276L244.097 113.526C243.775 113.638 243.481 113.722 243.285 113.722C242.879 113.722 242.613 113.47 242.613 113.106V104.72ZM255.861 108.458H253.495L251.815 112.798L250.121 108.458H247.755L250.667 115.5H252.949L255.861 108.458ZM261.43 108.374C260.282 108.374 259.512 108.976 259.008 109.816V108.472H256.768V115.5H259.008V113.302C259.008 111.482 259.862 110.67 261.43 110.67H261.836L261.934 108.43C261.766 108.388 261.626 108.374 261.43 108.374ZM265.879 108.262C264.199 108.262 262.967 109.116 262.659 110.474L264.773 110.908C264.885 110.292 265.277 110.026 265.949 110.026C266.537 110.026 266.943 110.418 266.943 111.006V111.146H265.151C263.275 111.146 262.225 112.042 262.225 113.414C262.225 114.8 263.275 115.71 264.843 115.71C265.781 115.71 266.453 115.402 266.943 114.982V115.5H269.099V111.048C269.099 109.256 267.853 108.262 265.879 108.262ZM265.473 114.03C264.885 114.03 264.493 113.75 264.493 113.302C264.493 112.868 264.843 112.574 265.403 112.574H266.943V112.728C266.943 113.512 266.243 114.03 265.473 114.03ZM277.887 108.472H275.647V109.032C275.101 108.542 274.373 108.262 273.463 108.262C271.601 108.262 270.033 109.774 270.033 111.986C270.033 114.212 271.601 115.71 273.463 115.71C274.373 115.71 275.101 115.43 275.647 114.94V115.416C275.647 116.522 274.765 117.026 273.757 117.026C273.029 117.026 272.623 116.788 272.105 116.158L270.243 117.306C270.929 118.44 272.147 119 273.757 119C276.039 119 277.887 117.81 277.887 115.64V108.472ZM273.925 113.806C272.945 113.806 272.231 113.078 272.231 111.986C272.231 110.908 272.945 110.166 273.925 110.166C274.835 110.166 275.647 110.908 275.647 111.986C275.647 113.078 274.835 113.806 273.925 113.806ZM286.392 111.986C286.35 109.69 284.754 108.262 282.766 108.262C280.722 108.262 279.042 109.774 279.042 111.986C279.042 114.212 280.722 115.71 282.752 115.71C284.362 115.71 285.636 114.996 286.238 113.512L284.25 113.106C283.872 113.792 283.27 113.918 282.752 113.918C281.996 113.918 281.422 113.4 281.24 112.56H286.392V111.986ZM282.766 110.082C283.41 110.082 283.97 110.432 284.18 111.188H281.282C281.492 110.474 282.136 110.082 282.766 110.082ZM291.953 108.262C291.071 108.262 290.329 108.584 289.797 109.144V108.472H287.557V115.5H289.797V112.238C289.797 110.88 290.371 110.278 291.253 110.278C291.967 110.278 292.457 110.838 292.457 111.664V115.5H294.683V111.188C294.683 109.424 293.591 108.262 291.953 108.262ZM303.889 108.262C302.979 108.262 302.251 108.542 301.705 109.032V104.72H299.465V115.5H301.705V114.94C302.251 115.43 302.979 115.71 303.889 115.71C305.751 115.71 307.319 114.212 307.319 111.986C307.319 109.774 305.751 108.262 303.889 108.262ZM303.427 113.806C302.517 113.806 301.705 113.078 301.705 111.986C301.705 110.908 302.517 110.166 303.427 110.166C304.407 110.166 305.121 110.908 305.121 111.986C305.121 113.078 304.407 113.806 303.427 113.806ZM315.363 111.986C315.321 109.69 313.725 108.262 311.737 108.262C309.693 108.262 308.013 109.774 308.013 111.986C308.013 114.212 309.693 115.71 311.723 115.71C313.333 115.71 314.607 114.996 315.209 113.512L313.221 113.106C312.843 113.792 312.241 113.918 311.723 113.918C310.967 113.918 310.393 113.4 310.211 112.56H315.363V111.986ZM311.737 110.082C312.381 110.082 312.941 110.432 313.151 111.188H310.253C310.463 110.474 311.107 110.082 311.737 110.082ZM323.416 111.986C323.374 109.69 321.778 108.262 319.79 108.262C317.746 108.262 316.066 109.774 316.066 111.986C316.066 114.212 317.746 115.71 319.776 115.71C321.386 115.71 322.66 114.996 323.262 113.512L321.274 113.106C320.896 113.792 320.294 113.918 319.776 113.918C319.02 113.918 318.446 113.4 318.264 112.56H323.416V111.986ZM319.79 110.082C320.434 110.082 320.994 110.432 321.204 111.188H318.306C318.516 110.474 319.16 110.082 319.79 110.082ZM328.977 108.262C328.095 108.262 327.353 108.584 326.821 109.144V108.472H324.581V115.5H326.821V112.238C326.821 110.88 327.395 110.278 328.277 110.278C328.991 110.278 329.481 110.838 329.481 111.664V115.5H331.707V111.188C331.707 109.424 330.615 108.262 328.977 108.262ZM337.925 113.428C337.631 113.596 337.211 113.708 336.903 113.708C336.315 113.708 335.965 113.414 335.965 112.686V110.25H338.037V108.472H335.965V106.12H333.725V108.472H332.451V110.25H333.725V112.91C333.725 114.758 334.775 115.71 336.525 115.71C337.323 115.71 337.897 115.486 338.443 115.192L337.925 113.428ZM349.511 108.472H347.313L346.165 112.266L344.835 108.472H343.253L341.923 112.252L340.775 108.472H338.577L340.831 115.514H342.777L344.051 111.706L345.311 115.514H347.257L349.511 108.472ZM353.7 108.29C351.572 108.29 349.808 109.774 349.808 111.986C349.808 114.212 351.572 115.696 353.7 115.696C355.786 115.696 357.55 114.212 357.55 111.986C357.55 109.774 355.786 108.29 353.7 108.29ZM353.7 113.806C352.79 113.806 351.964 113.092 351.964 111.986C351.964 110.894 352.79 110.166 353.7 110.166C354.568 110.166 355.394 110.894 355.394 111.986C355.394 113.092 354.568 113.806 353.7 113.806ZM363.368 108.374C362.22 108.374 361.45 108.976 360.946 109.816V108.472H358.706V115.5H360.946V113.302C360.946 111.482 361.8 110.67 363.368 110.67H363.774L363.872 108.43C363.704 108.388 363.564 108.374 363.368 108.374ZM372.113 104.72H369.873V109.032C369.327 108.542 368.599 108.262 367.689 108.262C365.827 108.262 364.259 109.774 364.259 111.986C364.259 114.212 365.827 115.71 367.689 115.71C368.599 115.71 369.327 115.43 369.873 114.94V115.5H372.113V104.72ZM368.151 113.806C367.171 113.806 366.457 113.078 366.457 111.986C366.457 110.908 367.171 110.166 368.151 110.166C369.061 110.166 369.873 110.908 369.873 111.986C369.873 113.078 369.061 113.806 368.151 113.806Z" fill="white"/>
</g>
<g filter="url(#filter9_dddd_707_3393)">
<g clip-path="url(#clip0_707_3393)">
<rect x="199" y="122.5" width="285" height="10" rx="5" fill="url(#paint7_linear_707_3393)"/>
<rect x="201" y="124.5" width="55" height="6" rx="3" fill="url(#paint8_linear_707_3393)"/>
<g filter="url(#filter10_d_707_3393)">
<rect x="213.333" y="123" width="1" height="10" fill="#1B6B4C"/>
</g>
<g filter="url(#filter11_d_707_3393)">
<rect x="228.667" y="123" width="1" height="10" fill="#1B6B4C"/>
</g>
<g filter="url(#filter12_d_707_3393)">
<rect x="244" y="123" width="1" height="10" fill="#1B6B4C"/>
</g>
<g filter="url(#filter13_d_707_3393)">
<rect x="259.333" y="123" width="1" height="10" fill="#1B6B4C"/>
</g>
<g filter="url(#filter14_d_707_3393)">
<rect x="274.667" y="123" width="1" height="10" fill="#1B6B4C"/>
</g>
<g filter="url(#filter15_d_707_3393)">
<rect x="290" y="123" width="1" height="10" fill="#1B6B4C"/>
</g>
<g filter="url(#filter16_d_707_3393)">
<rect x="305.333" y="123" width="1" height="10" fill="#1B6B4C"/>
</g>
<g filter="url(#filter17_d_707_3393)">
<rect x="320.667" y="123" width="1" height="10" fill="#1B6B4C"/>
</g>
<g filter="url(#filter18_d_707_3393)">
<rect x="336" y="123" width="1" height="10" fill="#1B6B4C"/>
</g>
<g filter="url(#filter19_d_707_3393)">
<rect x="351.333" y="123" width="1" height="10" fill="#1B6B4C"/>
</g>
<g filter="url(#filter20_d_707_3393)">
<rect x="366.667" y="123" width="1" height="10" fill="#1B6B4C"/>
</g>
<g filter="url(#filter21_d_707_3393)">
<rect x="382" y="123" width="1" height="10" fill="#1B6B4C"/>
</g>
<g filter="url(#filter22_d_707_3393)">
<rect x="397.333" y="123" width="1" height="10" fill="#1B6B4C"/>
</g>
<g filter="url(#filter23_d_707_3393)">
<rect x="412.667" y="123" width="1" height="10" fill="#1B6B4C"/>
</g>
<g filter="url(#filter24_d_707_3393)">
<rect x="428" y="123" width="1" height="10" fill="#1B6B4C"/>
</g>
<g filter="url(#filter25_d_707_3393)">
<rect x="443.333" y="123" width="1" height="10" fill="#1B6B4C"/>
</g>
<g filter="url(#filter26_d_707_3393)">
<rect x="458.667" y="123" width="1" height="10" fill="#1B6B4C"/>
</g>
<g filter="url(#filter27_d_707_3393)">
<rect x="474" y="123" width="1" height="10" fill="#1B6B4C"/>
</g>
</g>
</g>
<defs>
<filter id="filter0_f_707_3393" x="198" y="0" width="211" height="128" filterUnits="userSpaceOnUse" color-interpolation-filters="sRGB">
<feFlood flood-opacity="0" result="BackgroundImageFix"/>
<feBlend mode="normal" in="SourceGraphic" in2="BackgroundImageFix" result="shape"/>
<feGaussianBlur stdDeviation="1" result="effect1_foregroundBlur_707_3393"/>
</filter>
<filter id="filter1_di_707_3393" x="0" y="52" width="608" height="133" filterUnits="userSpaceOnUse" color-interpolation-filters="sRGB">
<feFlood flood-opacity="0" result="BackgroundImageFix"/>
<feColorMatrix in="SourceAlpha" type="matrix" values="0 0 0 0 0 0 0 0 0 0 0 0 0 0 0 0 0 0 127 0" result="hardAlpha"/>
<feOffset dy="4"/>
<feGaussianBlur stdDeviation="17"/>
<feComposite in2="hardAlpha" operator="out"/>
<feColorMatrix type="matrix" values="0 0 0 0 0 0 0 0 0 0 0 0 0 0 0 0 0 0 0.79 0"/>
<feBlend mode="normal" in2="BackgroundImageFix" result="effect1_dropShadow_707_3393"/>
<feBlend mode="normal" in="SourceGraphic" in2="effect1_dropShadow_707_3393" result="shape"/>
<feColorMatrix in="SourceAlpha" type="matrix" values="0 0 0 0 0 0 0 0 0 0 0 0 0 0 0 0 0 0 127 0" result="hardAlpha"/>
<feOffset dy="2"/>
<feGaussianBlur stdDeviation="0.5"/>
<feComposite in2="hardAlpha" operator="arithmetic" k2="-1" k3="1"/>
<feColorMatrix type="matrix" values="0 0 0 0 1 0 0 0 0 1 0 0 0 0 1 0 0 0 0.26 0"/>
<feBlend mode="normal" in2="shape" result="effect2_innerShadow_707_3393"/>
</filter>
<filter id="filter2_f_707_3393" x="31" y="79" width="546" height="71" filterUnits="userSpaceOnUse" color-interpolation-filters="sRGB">
<feFlood flood-opacity="0" result="BackgroundImageFix"/>
<feBlend mode="normal" in="SourceGraphic" in2="BackgroundImageFix" result="shape"/>
<feGaussianBlur stdDeviation="1.5" result="effect1_foregroundBlur_707_3393"/>
</filter>
<filter id="filter3_f_707_3393" x="124" y="93" width="310" height="26" filterUnits="userSpaceOnUse" color-interpolation-filters="sRGB">
<feFlood flood-opacity="0" result="BackgroundImageFix"/>
<feBlend mode="normal" in="SourceGraphic" in2="BackgroundImageFix" result="shape"/>
<feGaussianBlur stdDeviation="2" result="effect1_foregroundBlur_707_3393"/>
</filter>
<filter id="filter4_f_707_3393" x="396" y="93" width="88" height="26" filterUnits="userSpaceOnUse" color-interpolation-filters="sRGB">
<feFlood flood-opacity="0" result="BackgroundImageFix"/>
<feBlend mode="normal" in="SourceGraphic" in2="BackgroundImageFix" result="shape"/>
<feGaussianBlur stdDeviation="2" result="effect1_foregroundBlur_707_3393"/>
</filter>
<filter id="filter5_f_707_3393" x="80.228" y="85.5955" width="37.7987" height="62.6995" filterUnits="userSpaceOnUse" color-interpolation-filters="sRGB">
<feFlood flood-opacity="0" result="BackgroundImageFix"/>
<feBlend mode="normal" in="SourceGraphic" in2="BackgroundImageFix" result="shape"/>
<feGaussianBlur stdDeviation="3.5" result="effect1_foregroundBlur_707_3393"/>
</filter>
<filter id="filter6_f_707_3393" x="487.473" y="85.5955" width="37.7987" height="62.6995" filterUnits="userSpaceOnUse" color-interpolation-filters="sRGB">
<feFlood flood-opacity="0" result="BackgroundImageFix"/>
<feBlend mode="normal" in="SourceGraphic" in2="BackgroundImageFix" result="shape"/>
<feGaussianBlur stdDeviation="3.5" result="effect1_foregroundBlur_707_3393"/>
</filter>
<filter id="filter7_dddd_707_3393" x="122" y="91" width="78" height="58" filterUnits="userSpaceOnUse" color-interpolation-filters="sRGB">
<feFlood flood-opacity="0" result="BackgroundImageFix"/>
<feColorMatrix in="SourceAlpha" type="matrix" values="0 0 0 0 0 0 0 0 0 0 0 0 0 0 0 0 0 0 127 0" result="hardAlpha"/>
<feOffset dy="-2"/>
<feGaussianBlur stdDeviation="1"/>
<feComposite in2="hardAlpha" operator="out"/>
<feColorMatrix type="matrix" values="0 0 0 0 1 0 0 0 0 1 0 0 0 0 1 0 0 0 0.25 0"/>
<feBlend mode="normal" in2="BackgroundImageFix" result="effect1_dropShadow_707_3393"/>
<feColorMatrix in="SourceAlpha" type="matrix" values="0 0 0 0 0 0 0 0 0 0 0 0 0 0 0 0 0 0 127 0" result="hardAlpha"/>
<feOffset dx="3" dy="3"/>
<feGaussianBlur stdDeviation="2.5"/>
<feComposite in2="hardAlpha" operator="out"/>
<feColorMatrix type="matrix" values="0 0 0 0 0 0 0 0 0 0 0 0 0 0 0 0 0 0 0.07 0"/>
<feBlend mode="normal" in2="effect1_dropShadow_707_3393" result="effect2_dropShadow_707_3393"/>
<feColorMatrix in="SourceAlpha" type="matrix" values="0 0 0 0 0 0 0 0 0 0 0 0 0 0 0 0 0 0 127 0" result="hardAlpha"/>
<feOffset dy="-1"/>
<feComposite in2="hardAlpha" operator="out"/>
<feColorMatrix type="matrix" values="0 0 0 0 0.364706 0 0 0 0 0.764706 0 0 0 0 0.596078 0 0 0 1 0"/>
<feBlend mode="normal" in2="effect2_dropShadow_707_3393" result="effect3_dropShadow_707_3393"/>
<feColorMatrix in="SourceAlpha" type="matrix" values="0 0 0 0 0 0 0 0 0 0 0 0 0 0 0 0 0 0 127 0" result="hardAlpha"/>
<feOffset dy="1"/>
<feComposite in2="hardAlpha" operator="out"/>
<feColorMatrix type="matrix" values="0 0 0 0 0.133333 0 0 0 0 0.533333 0 0 0 0 0.431373 0 0 0 1 0"/>
<feBlend mode="normal" in2="effect3_dropShadow_707_3393" result="effect4_dropShadow_707_3393"/>
<feBlend mode="normal" in="SourceGraphic" in2="effect4_dropShadow_707_3393" result="shape"/>
</filter>
<filter id="filter8_dd_707_3393" x="158.081" y="62.72" width="255.032" height="96.28" filterUnits="userSpaceOnUse" color-interpolation-filters="sRGB">
<feFlood flood-opacity="0" result="BackgroundImageFix"/>
<feColorMatrix in="SourceAlpha" type="matrix" values="0 0 0 0 0 0 0 0 0 0 0 0 0 0 0 0 0 0 127 0" result="hardAlpha"/>
<feOffset dy="1"/>
<feGaussianBlur stdDeviation="0.5"/>
<feComposite in2="hardAlpha" operator="out"/>
<feColorMatrix type="matrix" values="0 0 0 0 0 0 0 0 0 0 0 0 0 0 0 0 0 0 0.25 0"/>
<feBlend mode="normal" in2="BackgroundImageFix" result="effect1_dropShadow_707_3393"/>
<feColorMatrix in="SourceAlpha" type="matrix" values="0 0 0 0 0 0 0 0 0 0 0 0 0 0 0 0 0 0 127 0" result="hardAlpha"/>
<feOffset dy="-1"/>
<feGaussianBlur stdDeviation="20.5"/>
<feComposite in2="hardAlpha" operator="out"/>
<feColorMatrix type="matrix" values="0 0 0 0 1 0 0 0 0 1 0 0 0 0 1 0 0 0 0.25 0"/>
<feBlend mode="normal" in2="effect1_dropShadow_707_3393" result="effect2_dropShadow_707_3393"/>
<feBlend mode="normal" in="SourceGraphic" in2="effect2_dropShadow_707_3393" result="shape"/>
</filter>
<filter id="filter9_dddd_707_3393" x="197" y="118.5" width="295" height="22" filterUnits="userSpaceOnUse" color-interpolation-filters="sRGB">
<feFlood flood-opacity="0" result="BackgroundImageFix"/>
<feColorMatrix in="SourceAlpha" type="matrix" values="0 0 0 0 0 0 0 0 0 0 0 0 0 0 0 0 0 0 127 0" result="hardAlpha"/>
<feOffset dy="-2"/>
<feGaussianBlur stdDeviation="1"/>
<feComposite in2="hardAlpha" operator="out"/>
<feColorMatrix type="matrix" values="0 0 0 0 1 0 0 0 0 1 0 0 0 0 1 0 0 0 0.25 0"/>
<feBlend mode="normal" in2="BackgroundImageFix" result="effect1_dropShadow_707_3393"/>
<feColorMatrix in="SourceAlpha" type="matrix" values="0 0 0 0 0 0 0 0 0 0 0 0 0 0 0 0 0 0 127 0" result="hardAlpha"/>
<feOffset dx="3" dy="3"/>
<feGaussianBlur stdDeviation="2.5"/>
<feComposite in2="hardAlpha" operator="out"/>
<feColorMatrix type="matrix" values="0 0 0 0 0 0 0 0 0 0 0 0 0 0 0 0 0 0 0.07 0"/>
<feBlend mode="normal" in2="effect1_dropShadow_707_3393" result="effect2_dropShadow_707_3393"/>
<feColorMatrix in="SourceAlpha" type="matrix" values="0 0 0 0 0 0 0 0 0 0 0 0 0 0 0 0 0 0 127 0" result="hardAlpha"/>
<feOffset dy="-1"/>
<feComposite in2="hardAlpha" operator="out"/>
<feColorMatrix type="matrix" values="0 0 0 0 0.364706 0 0 0 0 0.764706 0 0 0 0 0.596078 0 0 0 1 0"/>
<feBlend mode="normal" in2="effect2_dropShadow_707_3393" result="effect3_dropShadow_707_3393"/>
<feColorMatrix in="SourceAlpha" type="matrix" values="0 0 0 0 0 0 0 0 0 0 0 0 0 0 0 0 0 0 127 0" result="hardAlpha"/>
<feOffset dy="1"/>
<feComposite in2="hardAlpha" operator="out"/>
<feColorMatrix type="matrix" values="0 0 0 0 0.133333 0 0 0 0 0.533333 0 0 0 0 0.431373 0 0 0 1 0"/>
<feBlend mode="normal" in2="effect3_dropShadow_707_3393" result="effect4_dropShadow_707_3393"/>
<feBlend mode="normal" in="SourceGraphic" in2="effect4_dropShadow_707_3393" result="shape"/>
</filter>
<filter id="filter10_d_707_3393" x="212.333" y="123" width="2" height="10" filterUnits="userSpaceOnUse" color-interpolation-filters="sRGB">
<feFlood flood-opacity="0" result="BackgroundImageFix"/>
<feColorMatrix in="SourceAlpha" type="matrix" values="0 0 0 0 0 0 0 0 0 0 0 0 0 0 0 0 0 0 127 0" result="hardAlpha"/>
<feOffset dx="-1"/>
<feComposite in2="hardAlpha" operator="out"/>
<feColorMatrix type="matrix" values="0 0 0 0 1 0 0 0 0 1 0 0 0 0 1 0 0 0 0.05 0"/>
<feBlend mode="normal" in2="BackgroundImageFix" result="effect1_dropShadow_707_3393"/>
<feBlend mode="normal" in="SourceGraphic" in2="effect1_dropShadow_707_3393" result="shape"/>
</filter>
<filter id="filter11_d_707_3393" x="227.667" y="123" width="2" height="10" filterUnits="userSpaceOnUse" color-interpolation-filters="sRGB">
<feFlood flood-opacity="0" result="BackgroundImageFix"/>
<feColorMatrix in="SourceAlpha" type="matrix" values="0 0 0 0 0 0 0 0 0 0 0 0 0 0 0 0 0 0 127 0" result="hardAlpha"/>
<feOffset dx="-1"/>
<feComposite in2="hardAlpha" operator="out"/>
<feColorMatrix type="matrix" values="0 0 0 0 1 0 0 0 0 1 0 0 0 0 1 0 0 0 0.05 0"/>
<feBlend mode="normal" in2="BackgroundImageFix" result="effect1_dropShadow_707_3393"/>
<feBlend mode="normal" in="SourceGraphic" in2="effect1_dropShadow_707_3393" result="shape"/>
</filter>
<filter id="filter12_d_707_3393" x="243" y="123" width="2" height="10" filterUnits="userSpaceOnUse" color-interpolation-filters="sRGB">
<feFlood flood-opacity="0" result="BackgroundImageFix"/>
<feColorMatrix in="SourceAlpha" type="matrix" values="0 0 0 0 0 0 0 0 0 0 0 0 0 0 0 0 0 0 127 0" result="hardAlpha"/>
<feOffset dx="-1"/>
<feComposite in2="hardAlpha" operator="out"/>
<feColorMatrix type="matrix" values="0 0 0 0 1 0 0 0 0 1 0 0 0 0 1 0 0 0 0.05 0"/>
<feBlend mode="normal" in2="BackgroundImageFix" result="effect1_dropShadow_707_3393"/>
<feBlend mode="normal" in="SourceGraphic" in2="effect1_dropShadow_707_3393" result="shape"/>
</filter>
<filter id="filter13_d_707_3393" x="258.333" y="123" width="2" height="10" filterUnits="userSpaceOnUse" color-interpolation-filters="sRGB">
<feFlood flood-opacity="0" result="BackgroundImageFix"/>
<feColorMatrix in="SourceAlpha" type="matrix" values="0 0 0 0 0 0 0 0 0 0 0 0 0 0 0 0 0 0 127 0" result="hardAlpha"/>
<feOffset dx="-1"/>
<feComposite in2="hardAlpha" operator="out"/>
<feColorMatrix type="matrix" values="0 0 0 0 1 0 0 0 0 1 0 0 0 0 1 0 0 0 0.05 0"/>
<feBlend mode="normal" in2="BackgroundImageFix" result="effect1_dropShadow_707_3393"/>
<feBlend mode="normal" in="SourceGraphic" in2="effect1_dropShadow_707_3393" result="shape"/>
</filter>
<filter id="filter14_d_707_3393" x="273.667" y="123" width="2" height="10" filterUnits="userSpaceOnUse" color-interpolation-filters="sRGB">
<feFlood flood-opacity="0" result="BackgroundImageFix"/>
<feColorMatrix in="SourceAlpha" type="matrix" values="0 0 0 0 0 0 0 0 0 0 0 0 0 0 0 0 0 0 127 0" result="hardAlpha"/>
<feOffset dx="-1"/>
<feComposite in2="hardAlpha" operator="out"/>
<feColorMatrix type="matrix" values="0 0 0 0 1 0 0 0 0 1 0 0 0 0 1 0 0 0 0.05 0"/>
<feBlend mode="normal" in2="BackgroundImageFix" result="effect1_dropShadow_707_3393"/>
<feBlend mode="normal" in="SourceGraphic" in2="effect1_dropShadow_707_3393" result="shape"/>
</filter>
<filter id="filter15_d_707_3393" x="289" y="123" width="2" height="10" filterUnits="userSpaceOnUse" color-interpolation-filters="sRGB">
<feFlood flood-opacity="0" result="BackgroundImageFix"/>
<feColorMatrix in="SourceAlpha" type="matrix" values="0 0 0 0 0 0 0 0 0 0 0 0 0 0 0 0 0 0 127 0" result="hardAlpha"/>
<feOffset dx="-1"/>
<feComposite in2="hardAlpha" operator="out"/>
<feColorMatrix type="matrix" values="0 0 0 0 1 0 0 0 0 1 0 0 0 0 1 0 0 0 0.05 0"/>
<feBlend mode="normal" in2="BackgroundImageFix" result="effect1_dropShadow_707_3393"/>
<feBlend mode="normal" in="SourceGraphic" in2="effect1_dropShadow_707_3393" result="shape"/>
</filter>
<filter id="filter16_d_707_3393" x="304.333" y="123" width="2" height="10" filterUnits="userSpaceOnUse" color-interpolation-filters="sRGB">
<feFlood flood-opacity="0" result="BackgroundImageFix"/>
<feColorMatrix in="SourceAlpha" type="matrix" values="0 0 0 0 0 0 0 0 0 0 0 0 0 0 0 0 0 0 127 0" result="hardAlpha"/>
<feOffset dx="-1"/>
<feComposite in2="hardAlpha" operator="out"/>
<feColorMatrix type="matrix" values="0 0 0 0 1 0 0 0 0 1 0 0 0 0 1 0 0 0 0.05 0"/>
<feBlend mode="normal" in2="BackgroundImageFix" result="effect1_dropShadow_707_3393"/>
<feBlend mode="normal" in="SourceGraphic" in2="effect1_dropShadow_707_3393" result="shape"/>
</filter>
<filter id="filter17_d_707_3393" x="319.667" y="123" width="2" height="10" filterUnits="userSpaceOnUse" color-interpolation-filters="sRGB">
<feFlood flood-opacity="0" result="BackgroundImageFix"/>
<feColorMatrix in="SourceAlpha" type="matrix" values="0 0 0 0 0 0 0 0 0 0 0 0 0 0 0 0 0 0 127 0" result="hardAlpha"/>
<feOffset dx="-1"/>
<feComposite in2="hardAlpha" operator="out"/>
<feColorMatrix type="matrix" values="0 0 0 0 1 0 0 0 0 1 0 0 0 0 1 0 0 0 0.05 0"/>
<feBlend mode="normal" in2="BackgroundImageFix" result="effect1_dropShadow_707_3393"/>
<feBlend mode="normal" in="SourceGraphic" in2="effect1_dropShadow_707_3393" result="shape"/>
</filter>
<filter id="filter18_d_707_3393" x="335" y="123" width="2" height="10" filterUnits="userSpaceOnUse" color-interpolation-filters="sRGB">
<feFlood flood-opacity="0" result="BackgroundImageFix"/>
<feColorMatrix in="SourceAlpha" type="matrix" values="0 0 0 0 0 0 0 0 0 0 0 0 0 0 0 0 0 0 127 0" result="hardAlpha"/>
<feOffset dx="-1"/>
<feComposite in2="hardAlpha" operator="out"/>
<feColorMatrix type="matrix" values="0 0 0 0 1 0 0 0 0 1 0 0 0 0 1 0 0 0 0.05 0"/>
<feBlend mode="normal" in2="BackgroundImageFix" result="effect1_dropShadow_707_3393"/>
<feBlend mode="normal" in="SourceGraphic" in2="effect1_dropShadow_707_3393" result="shape"/>
</filter>
<filter id="filter19_d_707_3393" x="350.333" y="123" width="2" height="10" filterUnits="userSpaceOnUse" color-interpolation-filters="sRGB">
<feFlood flood-opacity="0" result="BackgroundImageFix"/>
<feColorMatrix in="SourceAlpha" type="matrix" values="0 0 0 0 0 0 0 0 0 0 0 0 0 0 0 0 0 0 127 0" result="hardAlpha"/>
<feOffset dx="-1"/>
<feComposite in2="hardAlpha" operator="out"/>
<feColorMatrix type="matrix" values="0 0 0 0 1 0 0 0 0 1 0 0 0 0 1 0 0 0 0.05 0"/>
<feBlend mode="normal" in2="BackgroundImageFix" result="effect1_dropShadow_707_3393"/>
<feBlend mode="normal" in="SourceGraphic" in2="effect1_dropShadow_707_3393" result="shape"/>
</filter>
<filter id="filter20_d_707_3393" x="365.667" y="123" width="2" height="10" filterUnits="userSpaceOnUse" color-interpolation-filters="sRGB">
<feFlood flood-opacity="0" result="BackgroundImageFix"/>
<feColorMatrix in="SourceAlpha" type="matrix" values="0 0 0 0 0 0 0 0 0 0 0 0 0 0 0 0 0 0 127 0" result="hardAlpha"/>
<feOffset dx="-1"/>
<feComposite in2="hardAlpha" operator="out"/>
<feColorMatrix type="matrix" values="0 0 0 0 1 0 0 0 0 1 0 0 0 0 1 0 0 0 0.05 0"/>
<feBlend mode="normal" in2="BackgroundImageFix" result="effect1_dropShadow_707_3393"/>
<feBlend mode="normal" in="SourceGraphic" in2="effect1_dropShadow_707_3393" result="shape"/>
</filter>
<filter id="filter21_d_707_3393" x="381" y="123" width="2" height="10" filterUnits="userSpaceOnUse" color-interpolation-filters="sRGB">
<feFlood flood-opacity="0" result="BackgroundImageFix"/>
<feColorMatrix in="SourceAlpha" type="matrix" values="0 0 0 0 0 0 0 0 0 0 0 0 0 0 0 0 0 0 127 0" result="hardAlpha"/>
<feOffset dx="-1"/>
<feComposite in2="hardAlpha" operator="out"/>
<feColorMatrix type="matrix" values="0 0 0 0 1 0 0 0 0 1 0 0 0 0 1 0 0 0 0.05 0"/>
<feBlend mode="normal" in2="BackgroundImageFix" result="effect1_dropShadow_707_3393"/>
<feBlend mode="normal" in="SourceGraphic" in2="effect1_dropShadow_707_3393" result="shape"/>
</filter>
<filter id="filter22_d_707_3393" x="396.333" y="123" width="2" height="10" filterUnits="userSpaceOnUse" color-interpolation-filters="sRGB">
<feFlood flood-opacity="0" result="BackgroundImageFix"/>
<feColorMatrix in="SourceAlpha" type="matrix" values="0 0 0 0 0 0 0 0 0 0 0 0 0 0 0 0 0 0 127 0" result="hardAlpha"/>
<feOffset dx="-1"/>
<feComposite in2="hardAlpha" operator="out"/>
<feColorMatrix type="matrix" values="0 0 0 0 1 0 0 0 0 1 0 0 0 0 1 0 0 0 0.05 0"/>
<feBlend mode="normal" in2="BackgroundImageFix" result="effect1_dropShadow_707_3393"/>
<feBlend mode="normal" in="SourceGraphic" in2="effect1_dropShadow_707_3393" result="shape"/>
</filter>
<filter id="filter23_d_707_3393" x="411.667" y="123" width="2" height="10" filterUnits="userSpaceOnUse" color-interpolation-filters="sRGB">
<feFlood flood-opacity="0" result="BackgroundImageFix"/>
<feColorMatrix in="SourceAlpha" type="matrix" values="0 0 0 0 0 0 0 0 0 0 0 0 0 0 0 0 0 0 127 0" result="hardAlpha"/>
<feOffset dx="-1"/>
<feComposite in2="hardAlpha" operator="out"/>
<feColorMatrix type="matrix" values="0 0 0 0 1 0 0 0 0 1 0 0 0 0 1 0 0 0 0.05 0"/>
<feBlend mode="normal" in2="BackgroundImageFix" result="effect1_dropShadow_707_3393"/>
<feBlend mode="normal" in="SourceGraphic" in2="effect1_dropShadow_707_3393" result="shape"/>
</filter>
<filter id="filter24_d_707_3393" x="427" y="123" width="2" height="10" filterUnits="userSpaceOnUse" color-interpolation-filters="sRGB">
<feFlood flood-opacity="0" result="BackgroundImageFix"/>
<feColorMatrix in="SourceAlpha" type="matrix" values="0 0 0 0 0 0 0 0 0 0 0 0 0 0 0 0 0 0 127 0" result="hardAlpha"/>
<feOffset dx="-1"/>
<feComposite in2="hardAlpha" operator="out"/>
<feColorMatrix type="matrix" values="0 0 0 0 1 0 0 0 0 1 0 0 0 0 1 0 0 0 0.05 0"/>
<feBlend mode="normal" in2="BackgroundImageFix" result="effect1_dropShadow_707_3393"/>
<feBlend mode="normal" in="SourceGraphic" in2="effect1_dropShadow_707_3393" result="shape"/>
</filter>
<filter id="filter25_d_707_3393" x="442.333" y="123" width="2" height="10" filterUnits="userSpaceOnUse" color-interpolation-filters="sRGB">
<feFlood flood-opacity="0" result="BackgroundImageFix"/>
<feColorMatrix in="SourceAlpha" type="matrix" values="0 0 0 0 0 0 0 0 0 0 0 0 0 0 0 0 0 0 127 0" result="hardAlpha"/>
<feOffset dx="-1"/>
<feComposite in2="hardAlpha" operator="out"/>
<feColorMatrix type="matrix" values="0 0 0 0 1 0 0 0 0 1 0 0 0 0 1 0 0 0 0.05 0"/>
<feBlend mode="normal" in2="BackgroundImageFix" result="effect1_dropShadow_707_3393"/>
<feBlend mode="normal" in="SourceGraphic" in2="effect1_dropShadow_707_3393" result="shape"/>
</filter>
<filter id="filter26_d_707_3393" x="457.667" y="123" width="2" height="10" filterUnits="userSpaceOnUse" color-interpolation-filters="sRGB">
<feFlood flood-opacity="0" result="BackgroundImageFix"/>
<feColorMatrix in="SourceAlpha" type="matrix" values="0 0 0 0 0 0 0 0 0 0 0 0 0 0 0 0 0 0 127 0" result="hardAlpha"/>
<feOffset dx="-1"/>
<feComposite in2="hardAlpha" operator="out"/>
<feColorMatrix type="matrix" values="0 0 0 0 1 0 0 0 0 1 0 0 0 0 1 0 0 0 0.05 0"/>
<feBlend mode="normal" in2="BackgroundImageFix" result="effect1_dropShadow_707_3393"/>
<feBlend mode="normal" in="SourceGraphic" in2="effect1_dropShadow_707_3393" result="shape"/>
</filter>
<filter id="filter27_d_707_3393" x="473" y="123" width="2" height="10" filterUnits="userSpaceOnUse" color-interpolation-filters="sRGB">
<feFlood flood-opacity="0" result="BackgroundImageFix"/>
<feColorMatrix in="SourceAlpha" type="matrix" values="0 0 0 0 0 0 0 0 0 0 0 0 0 0 0 0 0 0 127 0" result="hardAlpha"/>
<feOffset dx="-1"/>
<feComposite in2="hardAlpha" operator="out"/>
<feColorMatrix type="matrix" values="0 0 0 0 1 0 0 0 0 1 0 0 0 0 1 0 0 0 0.05 0"/>
<feBlend mode="normal" in2="BackgroundImageFix" result="effect1_dropShadow_707_3393"/>
<feBlend mode="normal" in="SourceGraphic" in2="effect1_dropShadow_707_3393" result="shape"/>
</filter>
<linearGradient id="paint0_linear_707_3393" x1="313.4" y1="100.4" x2="313.4" y2="2" gradientUnits="userSpaceOnUse">
<stop stop-color="#076352"/>
<stop offset="0.369792" stop-color="#73DBA9"/>
<stop offset="1" stop-color="#146348"/>
</linearGradient>
<linearGradient id="paint1_linear_707_3393" x1="311.933" y1="100.4" x2="311.933" y2="2" gradientUnits="userSpaceOnUse">
<stop stop-color="#076352"/>
<stop offset="0.369792" stop-color="#73DBA9"/>
<stop offset="1" stop-color="#146348"/>
</linearGradient>
<linearGradient id="paint2_linear_707_3393" x1="326" y1="147" x2="326" y2="82" gradientUnits="userSpaceOnUse">
<stop stop-color="#086E5C"/>
<stop offset="1" stop-color="#73DBA9"/>
</linearGradient>
<linearGradient id="paint3_linear_707_3393" x1="304" y1="147" x2="304" y2="101" gradientUnits="userSpaceOnUse">
<stop stop-color="#025546"/>
<stop offset="1" stop-color="#025546" stop-opacity="0"/>
</linearGradient>
<linearGradient id="paint4_linear_707_3393" x1="279" y1="97" x2="279" y2="115" gradientUnits="userSpaceOnUse">
<stop stop-color="#94D9BF" stop-opacity="0"/>
<stop offset="1" stop-color="#94D9BF"/>
</linearGradient>
<linearGradient id="paint5_linear_707_3393" x1="440" y1="97" x2="440" y2="115" gradientUnits="userSpaceOnUse">
<stop stop-color="#94D9BF" stop-opacity="0"/>
<stop offset="1" stop-color="#94D9BF"/>
</linearGradient>
<linearGradient id="paint6_linear_707_3393" x1="126.217" y1="96.725" x2="196.688" y2="117.001" gradientUnits="userSpaceOnUse">
<stop/>
<stop offset="0.635417" stop-color="#2E2E2E"/>
<stop offset="1" stop-color="#171717"/>
</linearGradient>
<linearGradient id="paint7_linear_707_3393" x1="208.293" y1="122.875" x2="218.359" y2="178.711" gradientUnits="userSpaceOnUse">
<stop stop-color="#22805C"/>
<stop offset="0.635417" stop-color="#1F7453"/>
<stop offset="1" stop-color="#237656"/>
<stop offset="1" stop-color="#237656"/>
</linearGradient>
<linearGradient id="paint8_linear_707_3393" x1="201" y1="127.5" x2="256" y2="127.5" gradientUnits="userSpaceOnUse">
<stop stop-color="#F1CD71"/>
<stop offset="0.0001" stop-color="#F1CD71"/>
<stop offset="0.526042" stop-color="#FEF641"/>
<stop offset="1" stop-color="#F99B45"/>
</linearGradient>
<clipPath id="clip0_707_3393">
<rect x="199" y="122.5" width="285" height="10" rx="5" fill="white"/>
</clipPath>
</defs>
</svg>
